# xmcd
#
# Track frame offsets: 
#        150
#        14840
#        46439
#        75956
#        101051
#        124230
#        150961
#        174675
#        198214
#
# Disc length: 4440 seconds
#
# Revision: 2
# Processed by: cddbd v1.5.2PL0 Copyright (c) Steve Scherf et al.
# Submitted via: ExactAudioCopy v1.0b3
#
DISCID=6b115609
DTITLE=Various Artist - Music For Lovers - Jazz For a Romantic Mood
DYEAR=2006
DGENRE=Jazz
TTITLE0=Stan Getz - Moonlight in Vermont
TTITLE1=Horace Silver - My One and Only Love
TTITLE2=Jimmy Smith - Time After Time
TTITLE3=Lee Morgan - Since I Fell For You
TTITLE4=Hank Mobley - The Good Live
TTITLE5=Stanley Turrentine - My Ship
TTITLE6=Dexter Gordon - Who Can I Turn To?
TTITLE7=Earl Klugh - Like a Lover
TTITLE8=Data
EXTD=YEAR: 2006
EXTT0=
EXTT1=
EXTT2=
EXTT3=
EXTT4=
EXTT5=
EXTT6=
EXTT7=
EXTT8=
PLAYORDER=
